<?xml version="1.0" standalone="no"?><!DOCTYPE svg PUBLIC "-//W3C//DTD SVG 1.1//EN" "http://www.w3.org/Graphics/SVG/1.1/DTD/svg11.dtd"><svg t="1482504322783" class="icon" style="" viewBox="0 0 1024 1024" version="1.1" xmlns="http://www.w3.org/2000/svg" p-id="3847" xmlns:xlink="http://www.w3.org/1999/xlink" width="48" height="48"><defs><style type="text/css"></style></defs><path d="M528.681054 330.220303C528.681054 320.664329 520.887116 312.917688 511.122137 312.917688L511.122137 312.917688C501.424687 312.917688 493.56322 320.92254 493.56322 330.220303L493.56322 536.204809C493.56322 545.760783 501.356882 553.507452 511.122137 553.507452L511.122137 553.507452C520.819588 553.507452 528.681054 545.5026 528.681054 536.204809L528.681054 330.220303ZM472.590546 24.123402 184.625248 600.053942C166.855722 635.592746 202.33721 675.652461 239.995367 661.168582L508.660413 557.565797C509.746948 557.223369 513.422514 557.223369 517.398635 558.217413L521.657321 541.182834 515.339864 557.565797 783.990242 661.163047C821.66279 675.652461 857.144278 635.592746 839.374752 600.053942L551.409731 24.123402C533.825076-8.13825 487.241612-8.13825 472.310471 24.710065L472.590546 24.123402ZM504.280508 39.241877C506.908285 33.460685 516.5133 33.460685 520.289604 40.384067L807.964587 615.759052C811.519212 622.868357 804.082286 631.265065 796.611319 628.391614L527.975055 524.799871 525.916008 524.148227C515.845216 521.630543 505.473594 521.630543 496.790169 524.525027L227.374566 628.397149C219.917991 631.265065 212.480788 622.868357 216.035413 615.759052L504.00071 39.828512 504.280508 39.241877ZM512 885.623134C527.284555 885.623134 539.675373 873.232454 539.675373 857.947761 539.675373 842.663068 527.284555 830.272388 512 830.272388 496.715445 830.272388 484.324627 842.663068 484.324627 857.947761 484.324627 873.232454 496.715445 885.623134 512 885.623134ZM512 1023.999997C527.284555 1023.999997 539.675373 1011.609318 539.675373 996.324625 539.675373 981.039931 527.284555 968.649252 512 968.649252 496.715445 968.649252 484.324627 981.039931 484.324627 996.324625 484.324627 1011.609318 496.715445 1023.999997 512 1023.999997ZM512 747.24627C527.284555 747.24627 539.675373 734.85559 539.675373 719.570897 539.675373 704.286204 527.284555 691.895525 512 691.895525 496.715445 691.895525 484.324627 704.286204 484.324627 719.570897 484.324627 734.85559 496.715445 747.24627 512 747.24627Z" p-id="3848"></path></svg>